<?xml version="1.0" ?><!DOCTYPE svg  PUBLIC '-//W3C//DTD SVG 1.1//EN'  'http://www.w3.org/Graphics/SVG/1.1/DTD/svg11.dtd'><svg height="512px" id="Layer_1" style="enable-background:new 0 0 512 512;" version="1.1" viewBox="0 0 512 512" width="512px" xml:space="preserve" xmlns="http://www.w3.org/2000/svg" xmlns:xlink="http://www.w3.org/1999/xlink"><g id="Layer_1_1_"><circle cx="259.415" cy="264.505" r="243" style="fill:#125E6E;"/></g><g id="Layer_2"><g id="Favorite"/><g><g><g><path d="M357.04,251.211l-115.76,111.71c-11.29,10.89-28.83,11.56-40.89,2.2      c-1.17-0.89-2.29-1.89-3.35-2.99L12.52,170.911c-11.95-12.39-11.6-32.29,0.79-44.24l115.76-111.71      c12.39-11.95,32.29-11.59,44.24,0.79l17.49,18.12l167.03,173.1C369.78,219.351,369.43,239.261,357.04,251.211z" style="fill:#FCF0C0;"/><path d="M357.04,251.211l-115.76,111.71      c-11.29,10.89-28.83,11.56-40.89,2.2c-1.17-0.89-2.29-1.89-3.35-2.99L12.52,170.911c-11.95-12.39-11.6-32.29,0.79-44.24      l115.76-111.71c12.39-11.95,32.29-11.59,44.24,0.79l17.49,18.12l167.03,173.1C369.78,219.351,369.43,239.261,357.04,251.211z" style="opacity:0.15;adobe-blending-mode:multiply;enable-background:new    ;"/></g><g><path d="M150.795,22.956c3.807,0,7.609,1.483,10.455,4.432l184.521,191.223c5.561,5.763,5.397,14.978-0.366,20.539      L229.638,350.86c-2.814,2.716-6.451,4.066-10.084,4.066c-3.807,0-7.609-1.483-10.455-4.432L24.578,159.27      c-5.561-5.763-5.397-14.978,0.366-20.539L140.711,27.022C143.526,24.307,147.163,22.956,150.795,22.956 M150.795,19.604      c-4.658,0-9.066,1.778-12.412,5.006L22.617,136.319c-3.432,3.311-5.369,7.767-5.454,12.546      c-0.085,4.779,1.692,9.301,5.003,12.733l184.521,191.223c3.396,3.519,7.965,5.457,12.867,5.457      c4.658,0,9.066-1.778,12.412-5.006l115.767-111.709c7.094-6.845,7.296-18.185,0.451-25.279L163.663,25.061      C160.267,21.542,155.697,19.604,150.795,19.604L150.795,19.604z"/></g><g><path d="M42.867,156.792l3.429,6.323l-4.556,4.396l-12.812-25.164l5.766-5.564l24.777,13.618l-4.728,4.562l-6.312-3.541      L42.867,156.792z M44.625,148.748l-5.189-2.955c-1.459-0.82-3.196-1.928-4.597-2.802l-0.058,0.056      c0.824,1.431,1.955,3.18,2.723,4.61l2.825,5.236L44.625,148.748z"/></g><g><path d="M326.471,223.191l-3.314-6.434l4.728-4.562l12.726,25.247l-5.766,5.564l-24.691-13.701l4.556-4.396l6.197,3.652      L326.471,223.191z M324.712,231.235l5.132,3.01c1.402,0.818,3.11,2.011,4.51,2.886l0.058-0.056      c-0.824-1.431-1.869-3.207-2.636-4.694l-2.768-5.292L324.712,231.235z"/></g><path d="M165.343,192.296c-1.423,0.007-2.813-0.231-4.187-0.57c-2.755-0.68-5.255-1.895-7.468-3.669     c-1.316-1.055-2.526-2.23-3.515-3.609c-2.071-2.888-3.245-6.082-3.263-9.664c-0.009-1.883,0.332-3.707,0.933-5.488     c0.619-1.834,1.496-3.542,2.561-5.151c1.28-1.936,2.75-3.721,4.409-5.347c0.927-0.908,1.957-1.685,3.008-2.44     c1.322-0.949,2.718-1.77,4.18-2.48c1.765-0.857,3.604-1.503,5.536-1.865c2.091-0.392,4.183-0.421,6.275,0     c2.093,0.421,4.007,1.262,5.778,2.439c0.852,0.567,1.664,1.187,2.402,1.899c0.173,0.167,0.359,0.32,0.546,0.471     c0.683,0.55,1.272,1.189,1.81,1.88c1.992,2.555,3.101,5.471,3.54,8.66c0.132,0.955,0.197,1.914,0.197,2.878     c0,0.117-0.037,0.233-0.056,0.348c0.03-0.078,0.05-0.079,0.058-0.005c-0.023-0.008-0.046-0.017-0.069-0.025     c0.132-0.075,0.255-0.161,0.308-0.312c0.049-0.142,0.092-0.286,0.14-0.428c0.518-1.523,1.313-2.887,2.324-4.137     c0.951-1.175,2.048-2.186,3.228-3.125c1.83-1.456,3.842-2.559,6.063-3.281c2.371-0.77,4.8-1.072,7.288-0.867     c2.626,0.216,5.048,1.039,7.262,2.463c0.783,0.503,1.553,1.027,2.205,1.704c0.188,0.195,0.402,0.359,0.663,0.448     c1.588,1.645,3.175,3.291,4.763,4.936c0.014,0.191,0.121,0.337,0.239,0.475c1.363,1.605,2.269,3.462,2.975,5.425     c0.667,1.856,0.999,3.774,1.002,5.749c0.002,2.008-0.352,3.952-1.046,5.83c-0.809,2.192-2.012,4.154-3.498,5.957     c-0.942,1.143-1.991,2.174-3.088,3.158c-1.21,1.086-2.506,2.058-3.924,2.87c-1.664,0.952-3.438,1.574-5.32,1.905     c-1.516,0.266-3.047,0.346-4.583,0.349c-0.3,0.001-0.601,0.011-0.901,0.022c-0.136,0.005-0.2,0.133-0.137,0.254     c0.305,0.592,0.703,1.124,1.12,1.635c0.666,0.817,1.411,1.558,2.23,2.228c2.075,1.696,4.423,2.889,6.924,3.802     c3.154,1.152,6.417,1.825,9.754,2.155c0.209,0.021,0.417,0.048,0.623,0.087c0.031,0.006,0.067,0.098,0.062,0.145     c-0.006,0.054-0.047,0.111-0.088,0.153c-0.189,0.193-0.382,0.383-0.576,0.572c-2.243,2.181-4.486,4.361-6.728,6.544     c-1.487,1.448-2.971,2.899-4.457,4.348c-2.068,2.016-4.136,4.031-6.206,6.045c-0.215,0.209-0.437,0.411-0.65,0.61     c-0.071-0.037-0.158-0.056-0.164-0.091c-0.041-0.205-0.076-0.412-0.089-0.62c-0.093-1.442-0.25-2.877-0.491-4.302     c-0.403-2.38-1.017-4.7-1.969-6.925c-0.594-1.387-1.304-2.709-2.179-3.937c-1.003-1.406-2.174-2.65-3.637-3.593     c-0.327-0.211-0.676-0.39-1.021-0.572c-0.103-0.054-0.227-0.07-0.343-0.1c-0.078-0.02-0.213,0.058-0.208,0.122     c0.09,1.313-0.222,2.571-0.546,3.822c-0.301,1.164-0.667,2.31-0.988,3.469c-0.349,1.261-0.954,2.397-1.656,3.488     c-1.079,1.677-2.339,3.204-3.797,4.566c-2.922,2.73-6.307,4.597-10.246,5.374c-5.015,0.989-9.683,0.074-13.993-2.669     c-1.35-0.86-2.583-1.864-3.684-3.029c-0.537-0.568-1.087-1.126-1.613-1.704c-1.116-1.225-2.135-2.527-3.023-3.927     c-0.662-1.044-1.218-2.143-1.635-3.309c-0.551-1.544-0.824-3.138-0.84-4.776c-0.028-2.739,0.423-5.389,1.454-7.934     c0.894-2.207,2.206-4.123,3.931-5.767c1.573-1.499,3.372-2.603,5.456-3.233c0.232-0.07,0.465-0.133,0.599-0.36     c0.022,0.074,0.014,0.085-0.026,0.031C165.303,192.301,165.323,192.299,165.343,192.296z"/><path d="M61.054,177.313c-0.448,0.002-0.886-0.073-1.319-0.18c-0.868-0.214-1.655-0.597-2.352-1.155     c-0.415-0.332-0.796-0.702-1.107-1.136c-0.652-0.909-1.022-1.915-1.028-3.043c-0.003-0.593,0.105-1.167,0.294-1.728     c0.195-0.578,0.471-1.115,0.806-1.622c0.403-0.61,0.866-1.172,1.389-1.684c0.292-0.286,0.616-0.531,0.947-0.768     c0.416-0.299,0.856-0.557,1.316-0.781c0.556-0.27,1.135-0.473,1.743-0.587c0.659-0.123,1.317-0.132,1.976,0     c0.659,0.133,1.262,0.397,1.819,0.768c0.268,0.178,0.524,0.374,0.756,0.598c0.054,0.052,0.113,0.101,0.172,0.148     c0.215,0.173,0.4,0.375,0.57,0.592c0.627,0.805,0.976,1.723,1.115,2.727c0.041,0.301,0.062,0.603,0.062,0.906     c0,0.037-0.012,0.073-0.018,0.11c0.01-0.024,0.016-0.025,0.018-0.002c-0.007-0.003-0.015-0.005-0.022-0.008     c0.042-0.024,0.08-0.051,0.097-0.098c0.016-0.045,0.029-0.09,0.044-0.135c0.163-0.48,0.413-0.909,0.732-1.303     c0.299-0.37,0.645-0.688,1.017-0.984c0.576-0.458,1.21-0.806,1.909-1.033c0.747-0.242,1.512-0.337,2.295-0.273     c0.827,0.068,1.59,0.327,2.287,0.776c0.247,0.158,0.489,0.324,0.694,0.537c0.059,0.061,0.126,0.113,0.209,0.141     c0.5,0.518,1,1.036,1.5,1.554c0.005,0.06,0.038,0.106,0.075,0.15c0.429,0.505,0.715,1.09,0.937,1.709     c0.21,0.584,0.315,1.188,0.315,1.81c0.001,0.632-0.111,1.244-0.329,1.836c-0.255,0.69-0.634,1.308-1.101,1.876     c-0.297,0.36-0.627,0.685-0.972,0.995c-0.381,0.342-0.789,0.648-1.236,0.904c-0.524,0.3-1.083,0.496-1.675,0.6     c-0.477,0.084-0.96,0.109-1.443,0.11c-0.095,0-0.189,0.003-0.284,0.007c-0.043,0.002-0.063,0.042-0.043,0.08     c0.096,0.186,0.221,0.354,0.353,0.515c0.21,0.257,0.444,0.491,0.702,0.702c0.653,0.534,1.393,0.91,2.18,1.197     c0.993,0.363,2.021,0.575,3.072,0.679c0.066,0.007,0.131,0.015,0.196,0.028c0.01,0.002,0.021,0.031,0.02,0.046     c-0.002,0.017-0.015,0.035-0.028,0.048c-0.06,0.061-0.12,0.121-0.181,0.18c-0.706,0.687-1.413,1.373-2.119,2.061     c-0.468,0.456-0.936,0.913-1.404,1.369c-0.651,0.635-1.303,1.269-1.954,1.904c-0.068,0.066-0.138,0.129-0.205,0.192     c-0.022-0.012-0.05-0.018-0.052-0.029c-0.013-0.064-0.024-0.13-0.028-0.195c-0.029-0.454-0.079-0.906-0.155-1.355     c-0.127-0.749-0.32-1.48-0.62-2.181c-0.187-0.437-0.411-0.853-0.686-1.24c-0.316-0.443-0.685-0.835-1.145-1.131     c-0.103-0.066-0.213-0.123-0.322-0.18c-0.032-0.017-0.072-0.022-0.108-0.031c-0.024-0.006-0.067,0.018-0.066,0.038     c0.028,0.413-0.07,0.81-0.172,1.204c-0.095,0.366-0.21,0.728-0.311,1.092c-0.11,0.397-0.3,0.755-0.522,1.098     c-0.34,0.528-0.737,1.009-1.196,1.438c-0.92,0.86-1.986,1.448-3.227,1.692c-1.579,0.311-3.049,0.023-4.407-0.841     c-0.425-0.271-0.813-0.587-1.16-0.954c-0.169-0.179-0.342-0.354-0.508-0.536c-0.351-0.386-0.672-0.796-0.952-1.237     c-0.209-0.329-0.384-0.675-0.515-1.042c-0.174-0.486-0.259-0.988-0.265-1.504c-0.009-0.862,0.133-1.697,0.458-2.498     c0.281-0.695,0.695-1.298,1.238-1.816c0.495-0.472,1.062-0.82,1.718-1.018c0.073-0.022,0.147-0.042,0.189-0.113     c0.007,0.023,0.004,0.027-0.008,0.01C61.041,177.314,61.048,177.313,61.054,177.313z"/><path d="M300.562,209.149c-0.018,0.448,0.041,0.888,0.132,1.324c0.183,0.875,0.537,1.675,1.071,2.391     c0.317,0.426,0.673,0.82,1.096,1.147c0.886,0.684,1.878,1.09,3.005,1.136c0.592,0.024,1.17-0.063,1.738-0.232     c0.584-0.174,1.132-0.431,1.65-0.748c0.624-0.381,1.202-0.824,1.732-1.328c0.296-0.281,0.552-0.597,0.802-0.919     c0.314-0.405,0.588-0.835,0.827-1.288c0.29-0.546,0.514-1.117,0.649-1.721c0.147-0.654,0.179-1.312,0.07-1.975     c-0.109-0.663-0.352-1.275-0.703-1.846c-0.169-0.274-0.355-0.537-0.571-0.777c-0.051-0.056-0.097-0.117-0.142-0.177     c-0.166-0.221-0.36-0.414-0.571-0.591c-0.782-0.656-1.687-1.037-2.686-1.211c-0.299-0.052-0.6-0.084-0.903-0.094     c-0.037-0.001-0.074,0.009-0.11,0.014c0.025-0.009,0.025-0.015,0.002-0.018c0.002,0.007,0.005,0.015,0.007,0.022     c0.025-0.041,0.053-0.078,0.102-0.093c0.045-0.014,0.091-0.026,0.136-0.039c0.485-0.146,0.923-0.381,1.328-0.685     c0.381-0.286,0.711-0.62,1.02-0.981c0.479-0.56,0.849-1.18,1.101-1.871c0.269-0.737,0.391-1.499,0.355-2.284     c-0.038-0.829-0.27-1.6-0.694-2.313c-0.15-0.252-0.306-0.5-0.511-0.713c-0.059-0.061-0.108-0.13-0.133-0.214     c-0.5-0.518-1-1.036-1.5-1.554c-0.06-0.007-0.105-0.042-0.147-0.08c-0.49-0.447-1.064-0.753-1.674-0.997     c-0.577-0.231-1.176-0.357-1.798-0.38c-0.632-0.023-1.248,0.067-1.847,0.264c-0.699,0.23-1.33,0.587-1.914,1.034     c-0.37,0.284-0.707,0.602-1.029,0.936c-0.355,0.369-0.676,0.766-0.947,1.203c-0.318,0.513-0.534,1.064-0.659,1.653     c-0.101,0.474-0.143,0.955-0.161,1.439c-0.004,0.094-0.01,0.189-0.017,0.283c-0.003,0.043-0.044,0.061-0.082,0.04     c-0.183-0.103-0.346-0.234-0.502-0.371c-0.25-0.219-0.474-0.461-0.676-0.727c-0.51-0.672-0.859-1.425-1.119-2.222     c-0.327-1.006-0.502-2.04-0.569-3.094c-0.004-0.066-0.01-0.132-0.021-0.197c-0.002-0.01-0.03-0.022-0.045-0.021     c-0.017,0.001-0.035,0.014-0.049,0.026c-0.063,0.057-0.125,0.116-0.187,0.175c-0.712,0.681-1.423,1.363-2.135,2.044     c-0.472,0.452-0.946,0.903-1.418,1.354c-0.658,0.628-1.315,1.257-1.972,1.885c-0.068,0.065-0.134,0.133-0.199,0.198     c0.011,0.023,0.016,0.05,0.027,0.053c0.064,0.015,0.129,0.028,0.194,0.035c0.453,0.045,0.903,0.111,1.348,0.203     c0.744,0.154,1.468,0.373,2.157,0.697c0.43,0.202,0.838,0.441,1.215,0.73c0.431,0.331,0.81,0.714,1.09,1.185     c0.063,0.105,0.115,0.217,0.169,0.328c0.016,0.033,0.019,0.072,0.028,0.109c0.005,0.025-0.021,0.066-0.041,0.064     c-0.412-0.043-0.812,0.041-1.209,0.129c-0.37,0.082-0.735,0.184-1.103,0.272c-0.401,0.096-0.765,0.273-1.116,0.482     c-0.54,0.321-1.035,0.7-1.48,1.144c-0.892,0.889-1.518,1.933-1.806,3.164c-0.368,1.567-0.132,3.046,0.683,4.434     c0.255,0.435,0.558,0.834,0.912,1.193c0.173,0.175,0.342,0.355,0.518,0.527c0.373,0.365,0.771,0.7,1.202,0.996     c0.321,0.22,0.661,0.407,1.023,0.552c0.48,0.191,0.978,0.294,1.494,0.318c0.862,0.04,1.701-0.073,2.513-0.369     c0.704-0.257,1.322-0.648,1.859-1.172c0.489-0.478,0.857-1.032,1.079-1.681c0.025-0.072,0.047-0.145,0.12-0.185     c-0.023-0.008-0.026-0.005-0.01,0.008C300.56,209.162,300.561,209.156,300.562,209.149z"/></g><g><g style="opacity:0.1;adobe-blending-mode:multiply;"><path d="M357.04,251.211l-115.76,111.71c-11.29,10.89-28.83,11.56-40.89,2.2      c-2.47-2.58-4.52-5.63-6.02-9.08L88.69,112.221c-6.84-15.79,0.48-34.31,16.27-41.15l85.84-37.2l167.03,173.1      C369.78,219.351,369.43,239.261,357.04,251.211z" style="fill:#FCF0C0;adobe-blending-mode:normal;"/><path d="M357.04,251.211l-115.76,111.71c-11.29,10.89-28.83,11.56-40.89,2.2      c-2.47-2.58-4.52-5.63-6.02-9.08L88.69,112.221c-6.84-15.79,0.48-34.31,16.27-41.15l85.84-37.2l167.03,173.1      C369.78,219.351,369.43,239.261,357.04,251.211z" style="adobe-blending-mode:normal;"/></g><g><path d="M385.03,315.981l-150.35,57.22c-9.85,3.75-20.49,2.14-28.66-3.38c-0.01,0-0.02-0.01-0.03-0.02      c-5.15-3.48-9.31-8.51-11.68-14.72l-94.52-248.35c-6.12-16.09,2.03-34.25,18.12-40.37l150.35-57.22      c16.08-6.12,34.25,2.03,40.37,18.11l8.59,22.58l85.93,225.78C409.27,291.691,401.12,309.861,385.03,315.981z" style="fill:#FCF0C0;"/><path d="M385.03,315.981l-150.35,57.22      c-9.85,3.75-20.49,2.14-28.66-3.38c-0.01,0-0.02-0.01-0.03-0.02c-5.15-3.48-9.31-8.51-11.68-14.72l-94.52-248.35      c-6.12-16.09,2.03-34.25,18.12-40.37l150.35-57.22c16.08-6.12,34.25,2.03,40.37,18.11l8.59,22.58l85.93,225.78      C409.27,291.691,401.12,309.861,385.03,315.981z" style="opacity:0.1;adobe-blending-mode:multiply;enable-background:new    ;"/></g><g><path d="M279.373,23.854c5.858,0,11.388,3.568,13.592,9.36l94.516,248.357      c2.849,7.485-0.924,15.894-8.409,18.742l-150.355,57.22c-1.694,0.645-3.437,0.95-5.15,0.95c-5.858,0-11.388-3.568-13.592-9.36      l-94.516-248.357c-2.849-7.485,0.924-15.894,8.409-18.742l150.355-57.22C275.917,24.159,277.659,23.854,279.373,23.854       M279.374,20.502h-0.001c-2.169,0-4.303,0.394-6.342,1.17l-150.355,57.22c-4.457,1.696-7.989,5.032-9.946,9.393      s-2.1,9.217-0.404,13.674l94.516,248.357c2.622,6.89,9.344,11.52,16.725,11.52c2.169,0,4.303-0.393,6.342-1.17l150.355-57.22      c4.457-1.696,7.989-5.032,9.946-9.393s2.1-9.217,0.404-13.674L296.098,32.021C293.476,25.131,286.755,20.502,279.374,20.502      L279.374,20.502z" style="fill:#D41920;"/></g><g><path d="M133.249,105.676l0.668,7.162L128,115.089l-1.89-28.174l7.489-2.85l17.431,22.26l-6.141,2.337l-4.413-5.737      L133.249,105.676z M138.028,98.97l-3.611-4.757c-1.019-1.327-2.181-3.029-3.126-4.383l-0.075,0.029      c0.195,1.64,0.548,3.692,0.692,5.309l0.54,5.925L138.028,98.97z"/></g><g><path d="M367.934,278.195l-0.518-7.219l6.141-2.337l1.779,28.217l-7.489,2.85l-17.319-22.303l5.917-2.252l4.263,5.794      L367.934,278.195z M363.155,284.901l3.536,4.785c0.968,1.304,2.069,3.071,3.013,4.426l0.075-0.029      c-0.195-1.64-0.458-3.683-0.579-5.352l-0.465-5.954L363.155,284.901z"/></g><path d="M266.937,231.909c-0.168,0.044-0.284-0.053-0.403-0.118c-0.691-0.379-1.379-0.763-2.068-1.147     c-13.359-7.43-26.718-14.861-40.077-22.291c-2.017-1.122-4.035-2.244-6.052-3.366c-0.172-0.096-0.345-0.191-0.515-0.29     c-0.309-0.179-0.33-0.227-0.232-0.533c0.051-0.161,0.106-0.321,0.16-0.481c5.935-17.487,11.871-34.974,17.808-52.461     c0.081-0.239,0.178-0.472,0.279-0.703c0.016-0.037,0.101-0.077,0.137-0.065c0.132,0.045,0.261,0.103,0.382,0.172     c1.374,0.773,2.747,1.548,4.119,2.323c8.898,5.026,17.795,10.051,26.692,15.077c5.981,3.378,11.961,6.757,17.941,10.137     c0.17,0.096,0.334,0.207,0.492,0.322c0.038,0.027,0.069,0.101,0.062,0.148c-0.022,0.138-0.053,0.276-0.099,0.408     c-0.324,0.931-0.652,1.86-0.979,2.789c-5.05,14.368-10.101,28.736-15.151,43.104c-0.738,2.098-1.476,4.196-2.217,6.293     C267.134,231.46,267.085,231.71,266.937,231.909z" style="fill:#D41920;"/><path d="M153.962,148.707c-0.064,0.017-0.108-0.02-0.154-0.045c-0.263-0.145-0.526-0.291-0.788-0.437     c-5.093-2.833-10.186-5.665-15.278-8.498c-0.769-0.428-1.538-0.855-2.307-1.283c-0.066-0.037-0.131-0.073-0.196-0.111     c-0.118-0.068-0.126-0.086-0.089-0.203c0.019-0.061,0.04-0.122,0.061-0.183c2.263-6.667,4.525-13.333,6.789-19.999     c0.031-0.091,0.068-0.18,0.106-0.268c0.006-0.014,0.039-0.029,0.052-0.025c0.05,0.017,0.099,0.039,0.146,0.065     c0.524,0.295,1.047,0.59,1.57,0.886c3.392,1.916,6.784,3.832,10.176,5.748c2.28,1.288,4.56,2.576,6.839,3.865     c0.065,0.037,0.127,0.079,0.188,0.123c0.014,0.01,0.026,0.039,0.024,0.056c-0.008,0.053-0.02,0.105-0.038,0.156     c-0.123,0.355-0.248,0.709-0.373,1.063c-1.925,5.478-3.851,10.955-5.776,16.433c-0.281,0.8-0.563,1.6-0.845,2.399     C154.037,148.536,154.019,148.631,153.962,148.707z" style="fill:#D41920;"/><path d="M359.139,265.43c-0.064,0.017-0.108-0.02-0.154-0.045c-0.263-0.145-0.526-0.291-0.788-0.437     c-5.093-2.833-10.186-5.665-15.278-8.498c-0.769-0.428-1.538-0.855-2.307-1.283c-0.066-0.037-0.131-0.073-0.196-0.111     c-0.118-0.068-0.126-0.086-0.089-0.203c0.019-0.061,0.04-0.122,0.061-0.183c2.263-6.667,4.525-13.333,6.789-19.999     c0.031-0.091,0.068-0.18,0.106-0.268c0.006-0.014,0.039-0.029,0.052-0.025c0.05,0.017,0.099,0.039,0.146,0.065     c0.524,0.295,1.047,0.59,1.57,0.886c3.392,1.916,6.784,3.832,10.176,5.748c2.28,1.288,4.56,2.576,6.839,3.865     c0.065,0.037,0.127,0.079,0.188,0.123c0.014,0.01,0.026,0.039,0.024,0.056c-0.008,0.053-0.02,0.105-0.038,0.155     c-0.123,0.355-0.248,0.709-0.373,1.063c-1.925,5.478-3.851,10.955-5.776,16.433c-0.281,0.8-0.563,1.6-0.845,2.399     C359.214,265.259,359.196,265.355,359.139,265.43z" style="fill:#D41920;"/></g><g><g style="opacity:0.1;adobe-blending-mode:multiply;"><path d="M385.03,315.981l-150.35,57.22c-9.85,3.75-20.49,2.14-28.66-3.38      c-0.01,0-0.02-0.01-0.03-0.02c-5.84-5.66-9.5-13.56-9.55-22.28l-1.45-265.73c-0.1-17.21,13.9-31.36,31.11-31.46l91.12-0.5      l85.93,225.78C409.27,291.691,401.12,309.861,385.03,315.981z" style="fill:#FCF0C0;adobe-blending-mode:normal;"/><path d="M385.03,315.981l-150.35,57.22c-9.85,3.75-20.49,2.14-28.66-3.38      c-0.01,0-0.02-0.01-0.03-0.02c-5.84-5.66-9.5-13.56-9.55-22.28l-1.45-265.73c-0.1-17.21,13.9-31.36,31.11-31.46l91.12-0.5      l85.93,225.78C409.27,291.691,401.12,309.861,385.03,315.981z" style="adobe-blending-mode:normal;"/></g><g><path d="M430.29,89.461l-0.64,16.58l-9.63,248.96c-0.66,17.19-15.27,30.72-32.47,30.05l-160.75-6.22      c-8.4-0.32-15.92-3.97-21.34-9.62c-5.68-5.92-9.06-14.05-8.72-22.85l10.27-265.53c0.67-17.2,15.28-30.72,32.47-30.06      l160.76,6.22C417.43,57.651,430.96,72.271,430.29,89.461z" style="fill:#FCF0C0;"/><path d="M430.29,89.461l-0.64,16.58      l-9.63,248.96c-0.66,17.19-15.27,30.72-32.47,30.05l-160.75-6.22c-8.4-0.32-15.92-3.97-21.34-9.62      c-5.68-5.92-9.06-14.05-8.72-22.85l10.27-265.53c0.67-17.2,15.28-30.72,32.47-30.06l160.76,6.22      C417.43,57.651,430.96,72.271,430.29,89.461z" style="opacity:0.05;adobe-blending-mode:multiply;enable-background:new    ;"/></g><g><path d="M238.266,67.511c0.189,0,0.378,0.004,0.568,0.011l160.755,6.217c8.003,0.31,14.263,7.073,13.953,15.076L403.274,354.35      c-0.302,7.813-6.756,13.965-14.508,13.965c-0.189,0-0.378-0.004-0.568-0.011l-160.755-6.217      c-8.003-0.309-14.263-7.073-13.954-15.076l10.269-265.535C224.061,73.663,230.514,67.512,238.266,67.511 M238.266,64.159      L238.266,64.159c-9.641,0.001-17.485,7.55-17.857,17.187L210.14,346.881c-0.184,4.766,1.502,9.322,4.749,12.83      s7.659,5.541,12.425,5.726l160.755,6.217c0.234,0.009,0.466,0.013,0.698,0.013c9.641,0,17.485-7.549,17.857-17.187      l10.269-265.535c0.381-9.851-7.323-18.174-17.174-18.555l-160.755-6.217C238.73,64.164,238.499,64.159,238.266,64.159      L238.266,64.159z"/></g><g><path d="M238.207,92.959l-2.19,6.852l-6.326-0.245l9.292-26.665l8.007,0.31l7.324,27.308l-6.566-0.254l-1.814-7.006      L238.207,92.959z M245.23,88.659l-1.46-5.79c-0.418-1.62-0.821-3.641-1.16-5.257l-0.08-0.003      c-0.462,1.585-0.941,3.612-1.442,5.156l-1.823,5.664L245.23,88.659z"/></g><g><path d="M386.609,343.591l2.35-6.845l6.566,0.254l-9.411,26.661l-8.007-0.31l-7.204-27.303l6.326,0.245l1.654,7L386.609,343.591      z M379.587,347.89l1.38,5.787c0.38,1.578,0.701,3.636,1.04,5.252l0.08,0.003c0.463-1.585,1.02-3.568,1.563-5.152l1.903-5.66      L379.587,347.89z"/></g><path d="M318.049,240.557c-0.076,0.206-0.167,0.391-0.214,0.586c-0.235,0.971-0.32,1.96-0.342,2.956     c-0.047,2.098,0.344,4.127,0.965,6.12c0.532,1.707,1.239,3.342,2.067,4.924c1.142,2.181,2.477,4.239,3.995,6.177     c0.162,0.207,0.317,0.419,0.478,0.627c0.041,0.054,0.052,0.11,0.002,0.158c-0.037,0.036-0.089,0.07-0.138,0.078     c-0.086,0.014-0.175,0.012-0.262,0.009c-1.227-0.034-2.455-0.065-3.682-0.106c-2.951-0.1-5.902-0.205-8.853-0.308     c-3.828-0.134-7.656-0.269-11.483-0.404c-0.438-0.015-0.876-0.034-1.314-0.051c-0.072-0.003-0.119-0.036-0.117-0.102     c0.001-0.054,0.006-0.122,0.038-0.158c0.367-0.416,0.745-0.824,1.111-1.242c1.236-1.408,2.372-2.893,3.381-4.474     c1.152-1.805,2.114-3.701,2.804-5.735c0.501-1.476,0.828-2.987,0.939-4.537c0.101-1.408-0.008-2.805-0.447-4.159     c-0.053-0.163-0.145-0.315-0.233-0.464c-0.018-0.03-0.115-0.048-0.149-0.027c-0.125,0.073-0.245,0.157-0.355,0.251     c-2.329,2.001-5.053,3.11-8.059,3.592c-1.654,0.265-3.315,0.29-4.983,0.187c-0.964-0.06-1.924-0.147-2.873-0.326     c-0.429-0.081-0.857-0.188-1.271-0.327c-4.183-1.402-7.545-3.91-10.071-7.529c-1.095-1.569-1.955-3.256-2.492-5.098     c-0.369-1.267-0.577-2.561-0.678-3.878c-0.141-1.845-0.083-3.685,0.129-5.516c0.264-2.274,0.847-4.476,1.695-6.605     c1.056-2.65,2.48-5.092,4.165-7.388c1.178-1.605,2.48-3.106,3.835-4.563c2.731-2.937,5.641-5.686,8.662-8.321     c2.116-1.845,4.245-3.673,6.365-5.512c0.309-0.268,0.609-0.547,0.904-0.831c2.993-2.88,5.897-5.846,8.666-8.942     c1.521-1.7,2.993-3.441,4.356-5.272c0.086-0.116,0.186-0.224,0.293-0.322c0.031-0.028,0.134-0.031,0.157-0.004     c0.115,0.131,0.222,0.27,0.316,0.416c0.84,1.303,1.721,2.577,2.635,3.829c2.242,3.074,4.648,6.014,7.176,8.855     c2.45,2.753,5.036,5.376,7.638,7.984c1.755,1.759,3.51,3.519,5.237,5.306c1.646,1.703,3.243,3.452,4.721,5.305     c1.94,2.431,3.641,5.012,4.951,7.841c1.308,2.827,2.241,5.772,2.731,8.85c0.254,1.592,0.343,3.196,0.211,4.808     c-0.084,1.022-0.26,2.031-0.488,3.027c-0.523,2.291-1.318,4.482-2.484,6.531c-1.544,2.712-3.583,4.967-6.17,6.724     c-1.917,1.302-4.021,2.123-6.295,2.531c-1.44,0.258-2.895,0.391-4.354,0.474c-0.116,0.007-0.234,0.006-0.35-0.006     c-4.284-0.438-8.094-1.966-11.28-4.92c-0.321-0.298-0.615-0.625-0.93-0.93C318.251,240.599,318.153,240.593,318.049,240.557z"/><path d="M242.582,131.602c-0.025,0.068-0.055,0.13-0.071,0.195c-0.078,0.323-0.107,0.652-0.114,0.984     c-0.016,0.699,0.115,1.374,0.321,2.037c0.177,0.568,0.412,1.112,0.688,1.639c0.38,0.726,0.825,1.411,1.33,2.056     c0.054,0.069,0.106,0.14,0.159,0.209c0.014,0.018,0.017,0.037,0.001,0.053c-0.012,0.012-0.03,0.023-0.046,0.026     c-0.028,0.005-0.058,0.004-0.087,0.003c-0.409-0.011-0.817-0.022-1.226-0.035c-0.982-0.033-1.965-0.068-2.947-0.103     c-1.274-0.045-2.548-0.089-3.822-0.134c-0.146-0.005-0.292-0.011-0.437-0.017c-0.024-0.001-0.039-0.012-0.039-0.034     c0-0.018,0.002-0.041,0.013-0.053c0.122-0.139,0.248-0.274,0.37-0.413c0.412-0.469,0.79-0.963,1.125-1.489     c0.383-0.601,0.704-1.232,0.933-1.909c0.167-0.491,0.276-0.994,0.313-1.51c0.034-0.469-0.003-0.934-0.149-1.384     c-0.018-0.054-0.048-0.105-0.077-0.154c-0.006-0.01-0.038-0.016-0.05-0.009c-0.041,0.024-0.082,0.052-0.118,0.084     c-0.775,0.666-1.682,1.035-2.683,1.196c-0.551,0.088-1.103,0.097-1.659,0.062c-0.321-0.02-0.641-0.049-0.956-0.109     c-0.143-0.027-0.285-0.063-0.423-0.109c-1.393-0.467-2.512-1.301-3.352-2.506c-0.364-0.522-0.651-1.084-0.829-1.697     c-0.123-0.422-0.192-0.852-0.226-1.291c-0.047-0.614-0.028-1.227,0.043-1.836c0.088-0.757,0.282-1.49,0.564-2.198     c0.351-0.882,0.826-1.695,1.387-2.459c0.392-0.534,0.826-1.034,1.277-1.519c0.909-0.977,1.878-1.893,2.883-2.77     c0.704-0.614,1.413-1.223,2.119-1.835c0.103-0.089,0.203-0.182,0.301-0.276c0.996-0.959,1.963-1.946,2.885-2.976     c0.506-0.566,0.996-1.146,1.45-1.755c0.029-0.039,0.062-0.075,0.097-0.107c0.01-0.009,0.045-0.01,0.052-0.001     c0.038,0.044,0.074,0.09,0.105,0.138c0.28,0.434,0.573,0.858,0.877,1.275c0.746,1.023,1.547,2.002,2.389,2.948     c0.816,0.917,1.676,1.79,2.543,2.658c0.584,0.586,1.168,1.171,1.743,1.766c0.548,0.567,1.079,1.149,1.572,1.766     c0.646,0.809,1.212,1.668,1.648,2.61c0.435,0.941,0.746,1.921,0.909,2.946c0.084,0.53,0.114,1.064,0.07,1.6     c-0.028,0.34-0.087,0.676-0.162,1.008c-0.174,0.763-0.439,1.492-0.827,2.174c-0.514,0.903-1.193,1.653-2.054,2.238     c-0.638,0.433-1.339,0.707-2.095,0.842c-0.479,0.086-0.964,0.13-1.449,0.158c-0.039,0.002-0.078,0.002-0.117-0.002     c-1.426-0.146-2.694-0.654-3.755-1.638c-0.107-0.099-0.205-0.208-0.31-0.309C242.649,131.616,242.617,131.614,242.582,131.602z"/><path d="M386.256,304.403c-0.02-0.07-0.045-0.134-0.056-0.2c-0.053-0.328-0.056-0.659-0.038-0.99     c0.038-0.698,0.22-1.361,0.478-2.006c0.22-0.553,0.497-1.077,0.813-1.581c0.435-0.695,0.931-1.343,1.485-1.947     c0.059-0.065,0.116-0.131,0.175-0.196c0.015-0.017,0.02-0.035,0.005-0.053c-0.011-0.013-0.028-0.026-0.044-0.03     c-0.028-0.007-0.058-0.008-0.087-0.01c-0.408-0.02-0.816-0.042-1.225-0.059c-0.982-0.043-1.964-0.084-2.946-0.125     c-1.274-0.054-2.548-0.108-3.821-0.161c-0.146-0.006-0.292-0.011-0.437-0.017c-0.024-0.001-0.04,0.009-0.041,0.031     c-0.001,0.018-0.001,0.041,0.009,0.054c0.111,0.148,0.226,0.293,0.337,0.441c0.374,0.499,0.713,1.021,1.007,1.572     c0.336,0.629,0.606,1.283,0.783,1.975c0.128,0.503,0.198,1.013,0.195,1.53c-0.003,0.47-0.075,0.931-0.255,1.369     c-0.022,0.053-0.056,0.101-0.089,0.148c-0.007,0.01-0.039,0.013-0.05,0.005c-0.039-0.027-0.077-0.058-0.111-0.092     c-0.721-0.724-1.597-1.162-2.582-1.399c-0.542-0.131-1.093-0.182-1.649-0.19c-0.322-0.005-0.642-0.001-0.962,0.034     c-0.144,0.016-0.289,0.04-0.43,0.076c-1.424,0.358-2.605,1.104-3.536,2.24c-0.404,0.493-0.733,1.03-0.958,1.628     c-0.155,0.411-0.257,0.835-0.325,1.269c-0.094,0.609-0.122,1.221-0.099,1.834c0.029,0.761,0.166,1.507,0.393,2.235     c0.282,0.907,0.692,1.754,1.192,2.559c0.35,0.563,0.743,1.095,1.156,1.613c0.831,1.045,1.726,2.032,2.661,2.984     c0.655,0.667,1.314,1.328,1.971,1.993c0.096,0.097,0.188,0.197,0.279,0.299c0.919,1.033,1.807,2.092,2.646,3.19     c0.461,0.603,0.905,1.219,1.31,1.862c0.026,0.041,0.056,0.079,0.089,0.114c0.009,0.01,0.044,0.014,0.052,0.005     c0.041-0.04,0.081-0.084,0.116-0.13c0.312-0.411,0.637-0.811,0.973-1.203c0.823-0.962,1.697-1.876,2.609-2.754     c0.884-0.851,1.81-1.655,2.74-2.453c0.628-0.539,1.255-1.078,1.874-1.626c0.59-0.523,1.165-1.062,1.703-1.639     c0.706-0.757,1.337-1.57,1.845-2.475c0.507-0.905,0.892-1.858,1.134-2.867c0.125-0.522,0.196-1.052,0.194-1.59     c-0.001-0.341-0.034-0.681-0.084-1.017c-0.115-0.774-0.322-1.521-0.657-2.231c-0.443-0.94-1.061-1.74-1.875-2.39     c-0.603-0.481-1.28-0.808-2.024-1.002c-0.471-0.123-0.951-0.204-1.433-0.269c-0.038-0.005-0.078-0.008-0.116-0.007     c-1.433,0.035-2.737,0.444-3.87,1.343c-0.114,0.091-0.22,0.192-0.333,0.285C386.324,304.395,386.291,304.394,386.256,304.403z"/></g><g><path d="M429.65,106.041l-9.63,248.96     c-0.66,17.19-15.27,30.72-32.47,30.05l-160.75-6.22c-8.4-0.32-15.92-3.97-21.34-9.62c-7.64-8.4-10.47-20.71-6.26-32.03     l92.72-249.04c6-16.12,24.11-24.41,40.23-18.4L429.65,106.041z" style="opacity:0.1;adobe-blending-mode:multiply;enable-background:new    ;"/><path d="M405.663,423.796c-6.725,15.839-25.187,23.295-41.026,16.569l-148.078-62.878     c-15.839-6.725-23.295-25.187-16.569-41.026L303.851,91.867c6.725-15.839,25.187-23.295,41.026-16.569l148.078,62.878     c15.839,6.725,23.295,25.187,16.569,41.026L405.663,423.796z" style="fill:#FCF0C0;"/><g><path d="M332.668,89.569c1.891,0,3.81,0.371,5.657,1.155l148.078,62.878      c7.372,3.13,10.823,11.675,7.693,19.048l-103.86,244.596c-2.346,5.525-7.735,8.848-13.39,8.848c-1.891,0-3.81-0.371-5.657-1.155      L223.11,362.061c-7.372-3.13-10.823-11.675-7.693-19.048L319.278,98.418C321.624,92.893,327.013,89.57,332.668,89.569       M332.67,86.217h-0.001c-7.2,0.001-13.667,4.275-16.475,10.89L212.331,341.703c-1.864,4.39-1.905,9.248-0.115,13.68      s5.193,7.899,9.583,9.763l148.078,62.878c2.222,0.944,4.566,1.422,6.967,1.422c7.199,0,13.667-4.275,16.476-10.89      L497.182,173.96c3.853-9.074-0.395-19.59-9.468-23.443L339.636,87.639C337.414,86.696,335.07,86.217,332.67,86.217      L332.67,86.217z" style="fill:#D41920;"/></g><path d="M395.372,260.887c-0.115,0.035-0.199,0.109-0.254,0.213c-1.285,2.428-3.101,4.439-5.052,6.331     c-2.97,2.88-6.316,5.257-9.936,7.25c-1.526,0.84-3.049,1.689-4.643,2.396c-1.566,0.695-3.129,1.4-4.705,2.071     c-4.757,2.026-9.574,3.905-14.406,5.742c-3.687,1.401-7.304,2.965-10.872,4.643c-1.577,0.741-3.136,1.519-4.704,2.278     c-0.15,0.073-0.289,0.182-0.506,0.165c-0.047-0.116-0.112-0.242-0.149-0.375c-1.281-4.572-2.908-9.024-4.645-13.438     c-0.45-1.142-0.962-2.26-1.429-3.396c-1.032-2.51-2.062-5.02-3.075-7.537c-0.907-2.252-1.793-4.513-2.685-6.771     c-0.535-1.355-1.082-2.706-1.592-4.07c-1.783-4.766-2.903-9.677-3.158-14.771c-0.158-3.15,0.027-6.276,0.657-9.371     c0.177-0.868,0.392-1.727,0.65-2.573c0.275-0.904,0.668-1.754,1.175-2.561c0.775-1.235,1.591-2.438,2.505-3.573     c1.313-1.63,2.783-3.1,4.459-4.358c1.985-1.491,4.157-2.608,6.554-3.273c2.367-0.657,4.77-0.848,7.208-0.519     c0.85,0.115,1.683,0.311,2.494,0.593c0.27,0.094,0.543,0.178,0.814,0.266c1.199,0.387,2.353,0.876,3.46,1.482     c0.777,0.425,1.538,0.87,2.264,1.381c3.123,2.201,5.241,5.126,6.354,8.778c0.647,2.123,0.894,4.3,0.857,6.513     c-0.038,2.236-0.343,4.437-0.918,6.599c-0.022,0.081-0.027,0.166-0.04,0.255c0.06,0,0.131,0.021,0.151-0.002     c0.111-0.128,0.226-0.257,0.309-0.403c0.835-1.469,1.803-2.844,2.905-4.124c1.445-1.679,3.091-3.122,5-4.256     c2.921-1.736,6.091-2.55,9.478-2.544c1.748,0.003,3.466,0.23,5.164,0.656c0.978,0.246,1.92,0.571,2.785,1.08     c1.304,0.768,2.542,1.631,3.687,2.629c3.764,3.283,5.91,7.413,6.515,12.357c0.287,2.341,0.191,4.673-0.186,6.996     c-0.123,0.761-0.256,1.52-0.536,2.245c-0.052,0.134-0.061,0.278-0.006,0.419C396.667,257.836,396.019,259.362,395.372,260.887z" style="fill:#D41920;"/><path d="M334.544,145.53c-0.039,0.012-0.068,0.038-0.087,0.073c-0.442,0.835-1.066,1.526-1.736,2.176     c-1.021,0.99-2.171,1.807-3.415,2.492c-0.525,0.289-1.048,0.58-1.596,0.824c-0.538,0.239-1.075,0.481-1.617,0.712     c-1.635,0.696-3.29,1.342-4.952,1.974c-1.267,0.482-2.51,1.019-3.737,1.596c-0.542,0.255-1.078,0.522-1.617,0.783     c-0.052,0.025-0.099,0.063-0.174,0.057c-0.016-0.04-0.038-0.083-0.051-0.129c-0.44-1.571-1-3.102-1.597-4.619     c-0.155-0.393-0.331-0.777-0.491-1.167c-0.355-0.863-0.709-1.725-1.057-2.591c-0.312-0.774-0.616-1.551-0.923-2.327     c-0.184-0.466-0.372-0.93-0.547-1.399c-0.613-1.638-0.998-3.326-1.086-5.077c-0.054-1.083,0.009-2.157,0.226-3.221     c0.061-0.298,0.135-0.594,0.223-0.884c0.094-0.311,0.23-0.603,0.404-0.88c0.267-0.424,0.547-0.838,0.861-1.228     c0.451-0.56,0.957-1.065,1.533-1.498c0.682-0.512,1.429-0.896,2.252-1.125c0.814-0.226,1.64-0.291,2.478-0.178     c0.292,0.039,0.578,0.107,0.857,0.204c0.093,0.032,0.187,0.061,0.28,0.091c0.412,0.133,0.809,0.301,1.189,0.509     c0.267,0.146,0.529,0.299,0.778,0.475c1.074,0.756,1.801,1.762,2.184,3.017c0.222,0.73,0.307,1.478,0.294,2.239     c-0.013,0.769-0.118,1.525-0.316,2.268c-0.007,0.028-0.009,0.057-0.014,0.088c0.021,0,0.045,0.007,0.052-0.001     c0.038-0.044,0.078-0.088,0.106-0.139c0.287-0.505,0.62-0.977,0.998-1.417c0.497-0.577,1.063-1.073,1.718-1.463     c1.004-0.597,2.093-0.876,3.258-0.874c0.601,0.001,1.191,0.079,1.775,0.225c0.336,0.084,0.66,0.196,0.957,0.371     c0.448,0.264,0.874,0.561,1.267,0.904c1.294,1.128,2.031,2.548,2.239,4.247c0.098,0.804,0.066,1.606-0.064,2.405     c-0.042,0.262-0.088,0.523-0.184,0.772c-0.018,0.046-0.021,0.096-0.002,0.144C334.989,144.481,334.766,145.006,334.544,145.53z" style="fill:#D41920;"/><g><path d="M328.709,114.282l-4.479,5.628l-5.827-2.474l18.152-21.63l7.376,3.132l-2.847,28.129l-6.048-2.568l0.791-7.194      L328.709,114.282z M336.801,112.755l0.691-5.932c0.184-1.663,0.525-3.695,0.782-5.326l-0.074-0.031      c-0.995,1.318-2.162,3.043-3.179,4.309l-3.715,4.647L336.801,112.755z"/></g><path d="M397.893,380.746c-0.019-0.037-0.02-0.075-0.008-0.114c0.294-0.898,0.358-1.826,0.36-2.761     c0.003-1.422-0.207-2.817-0.579-4.188c-0.156-0.578-0.31-1.157-0.516-1.72c-0.202-0.553-0.401-1.108-0.611-1.658     c-0.635-1.66-1.319-3.3-2.019-4.933c-0.534-1.246-1.01-2.514-1.447-3.797c-0.193-0.567-0.373-1.138-0.559-1.707     c-0.018-0.054-0.024-0.115-0.08-0.165c-0.04,0.016-0.086,0.03-0.129,0.053c-1.436,0.774-2.926,1.435-4.432,2.059     c-0.39,0.161-0.788,0.302-1.181,0.457c-0.867,0.344-1.734,0.688-2.598,1.039c-0.773,0.313-1.544,0.634-2.315,0.952     c-0.463,0.191-0.927,0.378-1.387,0.578c-1.604,0.697-3.086,1.592-4.407,2.745c-0.817,0.713-1.546,1.505-2.161,2.399     c-0.173,0.251-0.333,0.509-0.481,0.775c-0.158,0.284-0.274,0.584-0.353,0.902c-0.12,0.486-0.223,0.975-0.286,1.472     c-0.09,0.714-0.102,1.428-0.013,2.143c0.105,0.847,0.347,1.651,0.755,2.402c0.403,0.742,0.929,1.382,1.592,1.907     c0.231,0.183,0.479,0.342,0.742,0.475c0.088,0.044,0.174,0.092,0.26,0.138c0.382,0.204,0.778,0.373,1.192,0.502     c0.291,0.091,0.582,0.173,0.882,0.23c1.29,0.247,2.519,0.073,3.688-0.524c0.679-0.347,1.277-0.805,1.815-1.343     c0.544-0.543,1.015-1.144,1.413-1.802c0.015-0.025,0.035-0.046,0.053-0.071c0.014,0.015,0.036,0.027,0.035,0.038     c-0.005,0.058-0.01,0.117-0.026,0.173c-0.164,0.557-0.273,1.125-0.327,1.703c-0.07,0.758-0.034,1.51,0.141,2.252     c0.268,1.137,0.823,2.115,1.633,2.951c0.418,0.431,0.884,0.802,1.395,1.12c0.294,0.183,0.6,0.338,0.932,0.431     c0.501,0.139,1.01,0.239,1.53,0.284c1.71,0.147,3.244-0.308,4.611-1.338c0.647-0.488,1.201-1.068,1.686-1.716     c0.159-0.212,0.315-0.426,0.427-0.668c0.021-0.045,0.054-0.082,0.102-0.101C397.448,381.794,397.671,381.27,397.893,380.746z" style="fill:#D41920;"/><g><path d="M378.475,401.271l4.627-5.565l6.048,2.568l-18.262,21.583l-7.376-3.132l2.957-28.082l5.827,2.474l-0.939,7.131      L378.475,401.271z M370.384,402.798l-0.764,5.9c-0.205,1.611-0.635,3.648-0.893,5.279l0.074,0.031      c0.995-1.318,2.221-2.974,3.29-4.261l3.788-4.616L370.384,402.798z"/></g></g></g></g></svg>